<?xml version="1.0" encoding="UTF-8"?> <!-- Generator: Adobe Illustrator 25.2.3, SVG Export Plug-In . SVG Version: 6.00 Build 0) --> <svg xmlns="http://www.w3.org/2000/svg" xmlns:xlink="http://www.w3.org/1999/xlink" version="1.1" id="Layer_1" x="0px" y="0px" viewBox="0 0 404.23 135.52" style="enable-background:new 0 0 404.23 135.52;" xml:space="preserve"> <style type="text/css"> .st0{opacity:0.6;} .st1{clip-path:url(#SVGID_2_);fill:#0D7DBF;} .st2{fill:#19A94B;} </style> <g> <g> <g class="st0"> <g> <defs> <rect id="SVGID_1_" x="276.36" y="13.88" width="110.78" height="120.81"></rect> </defs> <clipPath id="SVGID_2_"> <use xlink:href="#SVGID_1_" style="overflow:visible;"></use> </clipPath> <path class="st1" d="M346.28,94.23c0-4.63,3.76-8.39,8.39-8.39c4.63,0,8.39,3.76,8.39,8.39c0,4.63-3.76,8.39-8.39,8.39 C350.05,102.62,346.28,98.86,346.28,94.23 M344.19,94.23c0,5.78,4.7,10.49,10.49,10.49c5.78,0,10.49-4.7,10.49-10.49 c0-5.78-4.7-10.49-10.49-10.49C348.89,83.74,344.19,88.45,344.19,94.23 M343.12,41.79v-0.04c0.02-1.16,0.98-2.08,2.13-2.06 c1.16,0.02,2.08,0.98,2.06,2.13c-0.02,1.16-0.97,2.08-2.13,2.06C344.04,43.87,343.12,42.93,343.12,41.79 M341.02,41.72 c-0.01,2.32,1.82,4.22,4.13,4.26c2.31,0.04,4.22-1.82,4.26-4.13v-0.07c0-2.28-1.83-4.16-4.12-4.19 C342.97,37.56,341.06,39.41,341.02,41.72 M328.42,42.45l0.03-1.86l4.28-0.52c0.44-0.05,0.8-0.38,0.9-0.82 c0.33-1.5,0.93-2.9,1.81-4.18c0.25-0.37,0.25-0.86-0.02-1.22l-2.55-3.48l1.34-1.29l3.39,2.66c0.35,0.28,0.84,0.3,1.22,0.05 c1.3-0.83,2.73-1.4,4.24-1.68c0.44-0.08,0.78-0.43,0.84-0.87l0.65-4.26l1.86,0.03l0.52,4.28c0.05,0.44,0.38,0.81,0.82,0.9 c1.5,0.32,2.91,0.93,4.18,1.81c0.37,0.25,0.85,0.25,1.21-0.02l3.48-2.55l1.3,1.34l-2.66,3.39c-0.28,0.35-0.3,0.84-0.06,1.21 c0.83,1.3,1.4,2.73,1.68,4.24c0.08,0.44,0.43,0.78,0.87,0.85l4.26,0.65l-0.03,1.86l-4.28,0.52c-0.44,0.05-0.8,0.38-0.9,0.82 c-0.32,1.5-0.94,2.9-1.82,4.17c-0.25,0.37-0.24,0.85,0.02,1.22l2.55,3.48l-1.33,1.3l-3.4-2.66c-0.35-0.28-0.83-0.3-1.21-0.06 c-1.3,0.83-2.73,1.4-4.24,1.68c-0.44,0.08-0.78,0.43-0.84,0.87l-0.65,4.26l-1.86-0.03l-0.52-4.28c-0.05-0.44-0.39-0.8-0.82-0.9 c-1.5-0.32-2.9-0.93-4.17-1.81c-0.37-0.25-0.85-0.24-1.21,0.02l-3.48,2.55l-1.29-1.34l2.66-3.4c0.27-0.35,0.3-0.83,0.06-1.21 c-0.83-1.3-1.4-2.73-1.68-4.24c-0.08-0.44-0.43-0.78-0.87-0.84L328.42,42.45z M326.31,43.33c-0.02,0.6,0.37,0.97,0.89,1.05 l4.45,0.69c0.3,1.26,0.78,2.47,1.43,3.61l-2.77,3.54c-0.33,0.42-0.3,1,0.07,1.38l2.57,2.65c0.36,0.38,0.95,0.42,1.37,0.11 l3.63-2.66c1.12,0.68,2.31,1.2,3.56,1.54l0.54,4.47c0.06,0.52,0.5,0.91,1.02,0.92l3.69,0.06c0.52,0.01,0.97-0.37,1.05-0.89 l0.68-4.45c1.26-0.3,2.47-0.78,3.61-1.43l3.54,2.77c0.41,0.32,1,0.29,1.37-0.07l2.65-2.57c0.38-0.36,0.43-0.95,0.12-1.37 l-2.66-3.63c0.68-1.11,1.2-2.31,1.54-3.56l4.47-0.54c0.52-0.06,0.92-0.5,0.93-1.02l0.06-3.69v-0.02c0-0.52-0.38-0.96-0.89-1.04 l-4.45-0.68c-0.3-1.26-0.78-2.47-1.43-3.61l2.78-3.54c0.32-0.41,0.29-1-0.07-1.37l-2.56-2.65c-0.36-0.38-0.95-0.43-1.38-0.12 l-3.63,2.66c-1.11-0.68-2.31-1.19-3.56-1.54l-0.54-4.46c-0.06-0.52-0.5-0.92-1.02-0.93l-3.69-0.06 c-0.52-0.01-0.97,0.37-1.05,0.89l-0.69,4.44c-1.26,0.3-2.47,0.78-3.61,1.43l-3.54-2.78c-0.41-0.32-1-0.29-1.38,0.07l-2.65,2.56 c-0.38,0.36-0.42,0.96-0.11,1.38l2.66,3.63c-0.68,1.12-1.2,2.31-1.54,3.56l-4.47,0.54c-0.52,0.06-0.91,0.5-0.92,1.02 L326.31,43.33z M325.31,96.46V92l7.92-1.09c0.44-0.06,0.8-0.4,0.89-0.83c0.53-2.66,1.57-5.16,3.08-7.44 c0.25-0.37,0.23-0.86-0.04-1.22l-4.83-6.38l3.15-3.15l6.38,4.83c0.35,0.27,0.85,0.29,1.22,0.04c2.27-1.51,4.77-2.55,7.44-3.09 c0.44-0.09,0.77-0.44,0.83-0.88l1.09-7.92h4.47l1.09,7.92c0.06,0.44,0.39,0.8,0.83,0.88c2.66,0.54,5.16,1.57,7.44,3.09 c0.37,0.25,0.86,0.23,1.21-0.04l6.38-4.83l3.16,3.16l-4.83,6.38c-0.27,0.36-0.29,0.84-0.04,1.21c1.51,2.28,2.56,4.78,3.09,7.44 c0.09,0.44,0.44,0.77,0.88,0.83l7.92,1.09v4.47l-7.92,1.09c-0.44,0.06-0.8,0.39-0.88,0.83c-0.53,2.66-1.58,5.16-3.09,7.44 c-0.25,0.37-0.23,0.86,0.04,1.21l4.83,6.38l-3.16,3.16l-6.38-4.83c-0.35-0.27-0.84-0.28-1.21-0.04 c-2.27,1.51-4.78,2.55-7.44,3.09c-0.44,0.09-0.77,0.44-0.83,0.88l-1.09,7.92h-4.47l-1.09-7.92c-0.06-0.44-0.39-0.8-0.83-0.88 c-2.66-0.54-5.16-1.57-7.44-3.09c-0.37-0.25-0.86-0.23-1.22,0.04l-6.38,4.83l-3.15-3.15l4.83-6.38 c0.27-0.35,0.28-0.84,0.04-1.22c-1.51-2.28-2.55-4.78-3.08-7.44c-0.09-0.44-0.44-0.77-0.89-0.83L325.31,96.46z M323.21,97.38 c0,0.52,0.39,0.97,0.91,1.04l8.1,1.11c0.57,2.41,1.51,4.7,2.83,6.83l-4.94,6.52c-0.32,0.42-0.28,1.01,0.09,1.38l4.45,4.45 c0.37,0.37,0.96,0.41,1.37,0.09l6.53-4.94c2.12,1.31,4.41,2.26,6.82,2.83l1.12,8.1c0.07,0.52,0.51,0.91,1.04,0.91h6.29 c0.52,0,0.97-0.39,1.04-0.91l1.12-8.1c2.41-0.57,4.7-1.52,6.82-2.83l6.53,4.94c0.42,0.32,1,0.28,1.37-0.09l4.45-4.45 c0.37-0.37,0.41-0.96,0.09-1.38l-4.94-6.52c1.31-2.12,2.26-4.41,2.83-6.83l8.1-1.11c0.52-0.07,0.9-0.52,0.9-1.04v-6.29 c0-0.53-0.39-0.97-0.9-1.04l-8.1-1.12c-0.57-2.41-1.52-4.7-2.83-6.82l4.94-6.53c0.32-0.42,0.28-1-0.09-1.37l-4.45-4.45 c-0.37-0.37-0.96-0.41-1.37-0.09l-6.53,4.94c-2.12-1.31-4.41-2.26-6.82-2.83l-1.12-8.1c-0.07-0.52-0.51-0.91-1.04-0.91h-6.29 c-0.52,0-0.96,0.39-1.04,0.91l-1.12,8.1c-2.41,0.57-4.7,1.52-6.82,2.83l-6.53-4.94c-0.42-0.32-1-0.28-1.37,0.09l-4.45,4.45 c-0.37,0.37-0.41,0.95-0.09,1.37l4.94,6.53c-1.31,2.12-2.26,4.41-2.83,6.82l-8.1,1.12c-0.52,0.07-0.91,0.51-0.91,1.04V97.38z M304.33,64.87c0-2.31,1.88-4.19,4.2-4.19c2.31,0,4.19,1.88,4.19,4.19c0,2.31-1.88,4.19-4.19,4.19 C306.21,69.06,304.33,67.18,304.33,64.87 M302.23,64.87c0,3.47,2.82,6.29,6.29,6.29c3.47,0,6.29-2.82,6.29-6.29 c0-3.47-2.82-6.29-6.29-6.29C305.06,58.57,302.23,61.4,302.23,64.87 M285.45,66.45v-3.16l6.1-0.84c0.44-0.06,0.8-0.4,0.88-0.83 c0.42-2.08,1.23-4.04,2.41-5.82c0.25-0.37,0.23-0.86-0.04-1.22l-3.72-4.91l2.24-2.24l4.91,3.72c0.36,0.27,0.84,0.28,1.21,0.04 c1.78-1.18,3.74-2,5.82-2.42c0.44-0.09,0.77-0.44,0.83-0.89l0.84-6.09h3.16l0.84,6.09c0.06,0.44,0.39,0.8,0.83,0.89 c2.08,0.42,4.04,1.23,5.82,2.42c0.37,0.25,0.86,0.23,1.21-0.04l4.91-3.72l2.24,2.24l-3.72,4.91c-0.27,0.35-0.28,0.85-0.04,1.22 c1.18,1.78,1.99,3.74,2.41,5.82c0.09,0.44,0.44,0.77,0.89,0.83l6.1,0.84v3.16l-6.1,0.84c-0.44,0.06-0.8,0.4-0.89,0.83 c-0.42,2.08-1.23,4.04-2.41,5.82c-0.25,0.37-0.23,0.86,0.04,1.22l3.72,4.91l-2.24,2.24l-4.91-3.72 c-0.35-0.27-0.84-0.29-1.21-0.04c-1.78,1.18-3.74,2-5.82,2.42c-0.44,0.09-0.77,0.44-0.83,0.89l-0.84,6.1h-3.16l-0.84-6.1 c-0.06-0.44-0.4-0.8-0.83-0.89c-2.08-0.42-4.04-1.23-5.82-2.42c-0.37-0.25-0.86-0.23-1.21,0.04l-4.91,3.72l-2.24-2.23l3.72-4.91 c0.27-0.35,0.28-0.84,0.04-1.21c-1.18-1.78-2-3.74-2.41-5.82c-0.09-0.44-0.44-0.77-0.88-0.83L285.45,66.45z M283.36,67.36 c0,0.53,0.38,0.97,0.91,1.04l6.28,0.86c0.45,1.84,1.17,3.59,2.15,5.21l-3.83,5.05c-0.32,0.42-0.27,1.01,0.09,1.38l3.53,3.53 c0.37,0.37,0.96,0.41,1.38,0.09l5.06-3.83c1.62,0.99,3.37,1.71,5.2,2.16l0.86,6.28c0.07,0.52,0.52,0.91,1.04,0.91h4.99 c0.52,0,0.97-0.39,1.04-0.91l0.86-6.28c1.83-0.45,3.58-1.17,5.2-2.16l5.06,3.83c0.42,0.32,1.01,0.27,1.38-0.1l3.53-3.53 c0.37-0.37,0.41-0.96,0.09-1.37l-3.83-5.06c0.99-1.62,1.71-3.37,2.15-5.2l6.28-0.87c0.52-0.07,0.9-0.51,0.9-1.04v-4.99 c0-0.52-0.39-0.97-0.9-1.04l-6.28-0.86c-0.45-1.83-1.17-3.58-2.15-5.2l3.83-5.06c0.32-0.42,0.28-1.01-0.09-1.38l-3.53-3.53 c-0.37-0.37-0.96-0.41-1.38-0.09l-5.06,3.83c-1.62-0.99-3.37-1.71-5.2-2.16l-0.86-6.28c-0.07-0.52-0.52-0.91-1.04-0.91h-4.99 c-0.52,0-0.96,0.39-1.04,0.91l-0.87,6.28c-1.84,0.45-3.58,1.18-5.2,2.16l-5.06-3.83c-0.42-0.32-1-0.28-1.37,0.09l-3.53,3.53 c-0.37,0.37-0.41,0.96-0.09,1.38l3.83,5.06c-0.99,1.62-1.71,3.36-2.16,5.2l-6.28,0.86c-0.52,0.07-0.91,0.51-0.91,1.04V67.36z"></path> </g> </g> <path class="st2" d="M232.47,49.51v13.92h-15.29V49.51h-6.42v34.3h6.42V69.07h15.29v14.75h6.47v-34.3H232.47z M190.82,83.81h6.47 V55.1h10.34v-5.59h-27.2v5.59h10.39V83.81z M158.09,83.86h5.39l15.43-34.35h-5.44L158.09,83.86z M123.49,83.81h6.32l7.3-24.25 l7.3,24.25h6.37l10.24-34.3h-6.52l-7.15,24.75l-7.5-24.75h-5.54l-7.45,24.75l-7.11-24.75h-6.57L123.49,83.81z M79.15,69.56v-5.78 c0-2.97,0.55-5.23,1.64-6.76c1.09-1.53,2.62-2.3,4.58-2.3h1.37c1.99,0,3.54,0.77,4.63,2.3c1.09,1.54,1.64,3.79,1.64,6.76v5.78 c0,2.97-0.56,5.22-1.67,6.74c-1.11,1.52-2.65,2.28-4.61,2.28h-1.37c-1.96,0-3.49-0.76-4.58-2.28 C79.7,74.77,79.15,72.53,79.15,69.56 M85.08,84.21h1.96c4.18,0,7.3-1.4,9.36-4.19c2.06-2.79,3.09-6.85,3.09-12.18v-2.35 c0-5.32-1.03-9.38-3.09-12.18c-2.06-2.79-5.18-4.19-9.36-4.19h-1.96c-8.26,0-12.4,5.46-12.4,16.37v2.35 C72.68,78.75,76.81,84.21,85.08,84.21 M56.51,84.21c2.29,0,4.39-0.42,6.32-1.25c1.93-0.83,3.46-2.04,4.61-3.63 c1.14-1.58,1.72-3.44,1.72-5.56c0-1.89-0.52-3.55-1.57-4.97c-1.04-1.42-2.43-2.44-4.17-3.06c1.31-0.69,2.35-1.69,3.14-3.01 c0.78-1.32,1.18-2.78,1.18-4.39c0-1.7-0.5-3.25-1.49-4.65c-1-1.4-2.38-2.51-4.14-3.33c-1.76-0.82-3.74-1.22-5.93-1.22 c-2.09,0-4.01,0.43-5.76,1.3c-1.75,0.86-3.15,2.11-4.21,3.72c-1.06,1.62-1.61,3.5-1.64,5.66h6.13c0.03-1.67,0.54-2.93,1.52-3.8 c0.98-0.87,2.27-1.3,3.87-1.3c1.63,0,2.93,0.38,3.9,1.15c0.96,0.77,1.44,1.81,1.44,3.11c0,1.31-0.46,2.38-1.37,3.21 c-0.91,0.83-2.14,1.25-3.67,1.25h-2.99v5.39h3.14c1.9,0,3.41,0.43,4.53,1.27c1.13,0.85,1.69,2.03,1.69,3.53 c0,1.54-0.56,2.74-1.69,3.63c-1.13,0.88-2.64,1.32-4.53,1.32c-1.86,0-3.4-0.49-4.63-1.47c-1.23-0.98-1.84-2.35-1.84-4.12h-6.27 c0,2.25,0.56,4.23,1.69,5.93c1.13,1.7,2.66,3.01,4.61,3.92C52.01,83.75,54.16,84.21,56.51,84.21 M29.71,72.35 c1.5,0,2.87-0.38,4.12-1.15c1.24-0.77,2.25-1.87,3.01-3.31c0.77-1.44,1.2-3.12,1.3-5.05h-5.59c-0.13,1.24-0.47,2.17-1,2.79 c-0.54,0.62-1.22,0.93-2.03,0.93c-0.59,0-1.13-0.12-1.62-0.37c-0.49-0.24-1.16-0.63-2.01-1.15c-1.01-0.69-1.95-1.22-2.82-1.59 c-0.86-0.38-1.87-0.56-3.01-0.56c-1.54,0-2.93,0.39-4.19,1.18c-1.26,0.78-2.27,1.89-3.04,3.33c-0.77,1.44-1.2,3.1-1.3,5h5.64 c0.1-1.14,0.42-2.05,0.95-2.72c0.54-0.67,1.25-1,2.13-1c0.62,0,1.2,0.13,1.74,0.39c0.54,0.26,1.2,0.65,1.98,1.18 c1.08,0.69,2.02,1.21,2.84,1.57C27.63,72.17,28.6,72.35,29.71,72.35"></path> </g> </g> </svg> 