<?xml version="1.0" encoding="UTF-8"?> <!-- Generator: Adobe Illustrator 25.2.3, SVG Export Plug-In . SVG Version: 6.00 Build 0) --> <svg xmlns="http://www.w3.org/2000/svg" xmlns:xlink="http://www.w3.org/1999/xlink" version="1.1" id="Layer_1" x="0px" y="0px" viewBox="0 0 366.81 100.65" style="enable-background:new 0 0 366.81 100.65;" xml:space="preserve"> <style type="text/css"> .st0{clip-path:url(#SVGID_2_);fill:#19A94B;} .st1{opacity:0.6;clip-path:url(#SVGID_2_);} .st2{fill:#0D7DBF;} </style> <g> <g> <defs> <rect id="SVGID_1_" x="5.12" y="9.42" width="354.25" height="89.72"></rect> </defs> <clipPath id="SVGID_2_"> <use xlink:href="#SVGID_1_" style="overflow:visible;"></use> </clipPath> <path class="st0" d="M347.26,96.05l4.12,3.09c2.61-3.1,4.6-6.53,5.95-10.29c1.36-3.76,2.03-7.74,2.03-11.96 c0-4.21-0.68-8.2-2.03-11.96c-1.36-3.76-3.34-7.19-5.95-10.29l-4.12,3.09c4.31,5.81,6.47,12.2,6.47,19.16 S351.58,90.24,347.26,96.05 M308.26,93.31h6.32l7.3-24.25l7.3,24.25h6.37l10.24-34.3h-6.52l-7.15,24.74l-7.5-24.74h-5.54 l-7.45,24.74l-7.11-24.74h-6.57L308.26,93.31z M258.09,93.31h6.08V70.57l9.36,22.74h4.9l9.31-22.74v22.74h6.08v-34.3h-7.45 l-10.39,25.33l-10.39-25.33h-7.5V93.31z M221.63,79.05v-5.78c0-2.97,0.55-5.23,1.64-6.76c1.09-1.54,2.62-2.3,4.58-2.3h1.37 c1.99,0,3.54,0.77,4.63,2.3c1.09,1.54,1.64,3.79,1.64,6.76v5.78c0,2.97-0.56,5.22-1.67,6.74c-1.11,1.52-2.65,2.28-4.61,2.28h-1.37 c-1.96,0-3.49-0.76-4.58-2.28C222.18,84.27,221.63,82.02,221.63,79.05 M227.56,93.7h1.96c4.18,0,7.3-1.4,9.36-4.19 s3.09-6.85,3.09-12.18v-2.35c0-5.32-1.03-9.38-3.09-12.18s-5.18-4.19-9.36-4.19h-1.96c-8.26,0-12.4,5.46-12.4,16.37v2.35 C215.16,88.24,219.29,93.7,227.56,93.7 M198.99,93.7c2.29,0,4.39-0.42,6.32-1.25c1.93-0.83,3.46-2.04,4.61-3.63 c1.14-1.59,1.71-3.44,1.71-5.56c0-1.89-0.52-3.55-1.57-4.97c-1.05-1.42-2.43-2.44-4.17-3.06c1.31-0.69,2.35-1.69,3.14-3.01 c0.78-1.32,1.18-2.79,1.18-4.39c0-1.7-0.5-3.25-1.49-4.66c-1-1.4-2.38-2.51-4.14-3.33c-1.76-0.82-3.74-1.22-5.93-1.22 c-2.09,0-4.01,0.43-5.76,1.3c-1.75,0.86-3.15,2.11-4.21,3.72c-1.06,1.62-1.61,3.5-1.64,5.66h6.12c0.03-1.67,0.54-2.93,1.52-3.8 c0.98-0.87,2.27-1.3,3.87-1.3c1.63,0,2.93,0.38,3.9,1.15c0.96,0.77,1.44,1.81,1.44,3.11c0,1.31-0.46,2.38-1.37,3.21 c-0.91,0.83-2.14,1.25-3.68,1.25h-2.99v5.39h3.14c1.89,0,3.41,0.42,4.53,1.27c1.13,0.85,1.69,2.03,1.69,3.53 c0,1.54-0.56,2.74-1.69,3.63c-1.13,0.88-2.64,1.32-4.53,1.32c-1.86,0-3.4-0.49-4.63-1.47c-1.22-0.98-1.84-2.35-1.84-4.12h-6.27 c0,2.25,0.56,4.23,1.69,5.93c1.13,1.7,2.66,3.01,4.61,3.92C194.49,93.24,196.64,93.7,198.99,93.7 M169.25,93.7 c2.45,0,4.66-0.51,6.64-1.52c1.98-1.01,3.53-2.42,4.65-4.21c1.13-1.8,1.69-3.82,1.69-6.08c0-2.19-0.51-4.17-1.52-5.95 c-1.01-1.78-2.41-3.19-4.19-4.21c-1.78-1.03-3.78-1.54-6-1.54c-1.31,0-2.5,0.2-3.58,0.59c-1.08,0.39-1.98,0.92-2.69,1.57 l1.18-7.74h14.46v-5.59h-19.26l-2.84,19.6h5.59c1.08-2.03,3.05-3.04,5.93-3.04c1.93,0,3.48,0.58,4.65,1.74 c1.18,1.16,1.76,2.69,1.76,4.58c0,1.9-0.59,3.4-1.76,4.51c-1.18,1.11-2.74,1.67-4.7,1.67c-1.67,0-3.02-0.42-4.07-1.27 c-1.05-0.85-1.67-2.04-1.86-3.58h-6.12c0.1,1.96,0.69,3.74,1.79,5.34c1.1,1.6,2.54,2.86,4.34,3.77 C165.12,93.24,167.09,93.7,169.25,93.7 M142.89,81.84c1.5,0,2.87-0.38,4.12-1.15c1.24-0.77,2.25-1.87,3.01-3.31 c0.77-1.44,1.2-3.12,1.3-5.05h-5.59c-0.13,1.24-0.47,2.17-1,2.79c-0.54,0.62-1.22,0.93-2.03,0.93c-0.59,0-1.13-0.12-1.62-0.37 c-0.49-0.25-1.16-0.63-2.01-1.15c-1.01-0.69-1.95-1.22-2.82-1.59c-0.87-0.38-1.87-0.56-3.01-0.56c-1.54,0-2.93,0.39-4.19,1.18 c-1.26,0.78-2.27,1.89-3.04,3.33c-0.77,1.44-1.2,3.1-1.3,5h5.63c0.1-1.14,0.42-2.05,0.96-2.72c0.54-0.67,1.25-1.01,2.13-1.01 c0.62,0,1.2,0.13,1.74,0.39c0.54,0.26,1.2,0.65,1.99,1.18c1.08,0.69,2.03,1.21,2.84,1.57C140.81,81.66,141.78,81.84,142.89,81.84 M116.72,99.14l4.12-3.09c-4.31-5.81-6.47-12.2-6.47-19.16s2.16-13.34,6.47-19.16l-4.12-3.09c-2.61,3.1-4.6,6.53-5.95,10.29 c-1.36,3.76-2.03,7.74-2.03,11.96c0,4.21,0.68,8.2,2.03,11.96C112.12,92.61,114.11,96.03,116.72,99.14"></path> <path class="st0" d="M298.8,44.5c2.87,0,5.18-0.7,6.93-2.11c1.75-1.4,2.62-3.27,2.62-5.59c0-2.06-0.43-3.62-1.27-4.68 c-0.85-1.06-1.85-1.78-2.99-2.16c-1.14-0.38-2.63-0.69-4.46-0.96c-1.73-0.23-3-0.51-3.8-0.86c-0.8-0.34-1.2-1-1.2-1.98 c0-0.82,0.33-1.46,0.98-1.94c0.65-0.47,1.52-0.71,2.6-0.71c1.04,0,1.99,0.31,2.84,0.93c0.85,0.62,1.36,1.47,1.52,2.55h5.49 c-0.13-2.42-1.11-4.35-2.94-5.81c-1.83-1.45-4.18-2.18-7.06-2.18c-1.67,0-3.18,0.31-4.53,0.93c-1.36,0.62-2.42,1.49-3.18,2.62 c-0.77,1.13-1.15,2.39-1.15,3.8c0,1.86,0.4,3.3,1.2,4.31c0.8,1.01,1.76,1.72,2.87,2.11c1.11,0.39,2.55,0.75,4.31,1.08 c1.21,0.23,2.15,0.43,2.82,0.61c0.67,0.18,1.23,0.47,1.67,0.88c0.44,0.41,0.66,0.97,0.66,1.69c0,0.75-0.37,1.38-1.1,1.89 c-0.74,0.51-1.67,0.76-2.82,0.76c-1.34,0-2.43-0.34-3.28-1.03c-0.85-0.69-1.34-1.62-1.47-2.79h-5.49c0.13,2.65,1.12,4.74,2.96,6.3 C293.37,43.72,295.8,44.5,298.8,44.5 M269.85,44.16h5.39l15.43-34.35h-5.44L269.85,44.16z M259.51,9.81v13.92h-15.29V9.81h-6.42 v34.3h6.42V29.36h15.29v14.75h6.47V9.81H259.51z M209.38,44.11h23.37v-5.63h-16.9v-9.16h13.13v-5.59h-13.13v-8.33h16.37V9.81 h-22.83V44.11z M169.79,21.71h6.52c-0.07-2.12,0.4-3.81,1.4-5.07c1-1.26,2.41-1.89,4.24-1.89c1.67,0,2.99,0.47,3.97,1.42 c0.98,0.95,1.47,2.22,1.47,3.82c0,2.52-1.41,4.46-4.21,5.83l-5.49,2.74c-2.09,1.01-3.94,2.44-5.54,4.29 c-1.6,1.85-2.4,4.01-2.4,6.49l0.05,4.75h24.11v-5.63h-17.74c0-1.7,1.44-3.3,4.31-4.8l5.29-2.65c5.42-2.68,8.13-6.34,8.13-10.98 c0-2.12-0.51-3.99-1.52-5.59c-1.01-1.6-2.42-2.84-4.24-3.72c-1.81-0.88-3.88-1.32-6.2-1.32c-2.48,0-4.65,0.5-6.49,1.5 c-1.85,1-3.26,2.42-4.24,4.26C170.23,17.02,169.76,19.2,169.79,21.71 M158.13,44.11h6.57v-6.32h-6.57V44.11z M140.34,44.5 c2.45,0,4.66-0.51,6.64-1.52c1.98-1.01,3.53-2.42,4.65-4.21c1.13-1.8,1.69-3.82,1.69-6.08c0-2.19-0.51-4.17-1.52-5.95 c-1.01-1.78-2.41-3.18-4.19-4.21c-1.78-1.03-3.78-1.54-6-1.54c-1.31,0-2.5,0.2-3.58,0.59s-1.98,0.92-2.7,1.57l1.18-7.74h14.46 V9.81h-19.26l-2.84,19.6h5.59c1.08-2.03,3.05-3.04,5.93-3.04c1.93,0,3.48,0.58,4.65,1.74c1.18,1.16,1.76,2.69,1.76,4.58 c0,1.89-0.59,3.4-1.76,4.51c-1.18,1.11-2.74,1.67-4.7,1.67c-1.67,0-3.02-0.42-4.07-1.27c-1.05-0.85-1.67-2.04-1.86-3.58h-6.12 c0.1,1.96,0.69,3.74,1.79,5.34c1.09,1.6,2.54,2.86,4.34,3.77C136.21,44.04,138.18,44.5,140.34,44.5 M122.46,9.81h-6.17 c-0.2,1.8-0.66,3.05-1.4,3.75c-0.73,0.7-1.81,1.05-3.21,1.05h-2.45v5.59h2.69c0.78,0,1.58-0.11,2.4-0.34 c0.82-0.23,1.37-0.56,1.67-0.98v25.23h6.47V9.81z"></path> <g class="st1"> <g> <path class="st2" d="M69.3,88.77H8.79V29.04H69.3V88.77z M25.68,21.01H52.4l10.19,4.46H15.5L25.68,21.01z M72.96,27.18 c0-0.08-0.01-0.15-0.02-0.23c-0.01-0.04-0.02-0.08-0.03-0.12c-0.02-0.06-0.04-0.13-0.06-0.19c-0.02-0.04-0.03-0.08-0.05-0.12 c-0.03-0.06-0.06-0.12-0.1-0.18c-0.02-0.03-0.04-0.07-0.07-0.1c-0.05-0.06-0.1-0.12-0.15-0.18c-0.02-0.02-0.04-0.05-0.06-0.07 c-0.08-0.08-0.17-0.15-0.26-0.21c-0.01-0.01-0.03-0.01-0.04-0.02c-0.07-0.05-0.15-0.09-0.23-0.13l-0.04-0.02l-18.3-8.01 c-0.24-0.1-0.49-0.16-0.75-0.16h-27.5c-0.26,0-0.51,0.05-0.75,0.16l-18.3,8.01L6.2,25.63c-0.08,0.04-0.16,0.08-0.23,0.13 c-0.01,0.01-0.03,0.01-0.04,0.02c-0.09,0.06-0.18,0.13-0.26,0.21C5.65,26,5.63,26.03,5.61,26.05c-0.05,0.06-0.11,0.12-0.15,0.18 c-0.02,0.03-0.04,0.07-0.07,0.1c-0.04,0.06-0.07,0.11-0.1,0.18c-0.02,0.04-0.03,0.08-0.05,0.12c-0.02,0.06-0.04,0.13-0.06,0.19 c-0.01,0.04-0.02,0.08-0.03,0.12c-0.01,0.08-0.02,0.15-0.02,0.23c0,0.03-0.01,0.05-0.01,0.08v63.29c0,0.98,0.82,1.78,1.83,1.78 h64.18c1.01,0,1.83-0.8,1.83-1.78V27.25C72.96,27.23,72.96,27.2,72.96,27.18"></path> <path class="st2" d="M40.78,86l-3.47-1.15l8.34-23.71H29.87c-0.59,0-1.14-0.28-1.49-0.74c-0.35-0.47-0.44-1.06-0.25-1.61 l9.17-26.74l3.48,1.13l-8.36,24.4h15.79c0.59,0,1.15,0.28,1.49,0.75c0.34,0.47,0.43,1.07,0.24,1.61L40.78,86z"></path> </g> </g> </g> </g> </svg> 