<?xml version="1.0" encoding="UTF-8"?> <!-- Generator: Adobe Illustrator 25.2.3, SVG Export Plug-In . SVG Version: 6.00 Build 0) --> <svg xmlns="http://www.w3.org/2000/svg" xmlns:xlink="http://www.w3.org/1999/xlink" version="1.1" id="Layer_1" x="0px" y="0px" viewBox="0 0 312.69 100.65" style="enable-background:new 0 0 312.69 100.65;" xml:space="preserve"> <style type="text/css"> .st0{clip-path:url(#SVGID_2_);fill:#19A94B;} .st1{opacity:0.6;clip-path:url(#SVGID_2_);} .st2{clip-path:url(#SVGID_4_);fill:#0D7DBF;} </style> <g> <g> <defs> <rect id="SVGID_1_" x="5.78" y="4.26" width="302.94" height="89.72"></rect> </defs> <clipPath id="SVGID_2_"> <use xlink:href="#SVGID_1_" style="overflow:visible;"></use> </clipPath> <path class="st0" d="M181.84,90.9l4.12,3.09c2.61-3.1,4.6-6.53,5.95-10.29c1.36-3.76,2.03-7.74,2.03-11.96 c0-4.21-0.68-8.2-2.03-11.96c-1.36-3.76-3.34-7.19-5.95-10.29l-4.12,3.09c4.31,5.81,6.47,12.2,6.47,19.16 S186.15,85.08,181.84,90.9 M142.83,88.15h6.32l7.3-24.26l7.3,24.26h6.37l10.24-34.3h-6.52l-7.15,24.74l-7.5-24.74h-5.54 l-7.45,24.74l-7.11-24.74h-6.57L142.83,88.15z M92.66,88.15h6.08V65.42l9.36,22.74h4.9l9.31-22.74v22.74h6.08v-34.3h-7.45 l-10.39,25.33l-10.39-25.33h-7.5V88.15z M56.2,73.89v-5.78c0-2.97,0.55-5.23,1.64-6.76c1.09-1.53,2.62-2.3,4.58-2.3h1.37 c1.99,0,3.54,0.77,4.63,2.3c1.09,1.54,1.64,3.79,1.64,6.76v5.78c0,2.97-0.56,5.22-1.67,6.74c-1.11,1.52-2.65,2.28-4.61,2.28h-1.37 c-1.96,0-3.49-0.76-4.58-2.28C56.75,79.11,56.2,76.87,56.2,73.89 M62.13,88.55h1.96c4.18,0,7.3-1.4,9.36-4.19 s3.09-6.85,3.09-12.18v-2.35c0-5.32-1.03-9.38-3.09-12.18s-5.18-4.19-9.36-4.19h-1.96c-8.26,0-12.4,5.46-12.4,16.37v2.35 C49.73,83.09,53.86,88.55,62.13,88.55 M33.56,88.55c2.29,0,4.39-0.42,6.32-1.25c1.93-0.83,3.46-2.04,4.61-3.63 c1.14-1.58,1.72-3.44,1.72-5.56c0-1.89-0.52-3.55-1.57-4.97c-1.05-1.42-2.43-2.44-4.17-3.06c1.31-0.69,2.35-1.69,3.14-3.01 c0.78-1.32,1.18-2.78,1.18-4.39c0-1.7-0.5-3.25-1.49-4.65c-1-1.4-2.38-2.51-4.14-3.33c-1.76-0.82-3.74-1.22-5.93-1.22 c-2.09,0-4.01,0.43-5.76,1.3c-1.75,0.86-3.15,2.11-4.21,3.72c-1.06,1.62-1.61,3.5-1.64,5.66h6.12c0.03-1.67,0.54-2.93,1.52-3.8 c0.98-0.87,2.27-1.3,3.87-1.3c1.63,0,2.93,0.38,3.9,1.15c0.96,0.77,1.45,1.81,1.45,3.11c0,1.31-0.46,2.38-1.37,3.21 c-0.92,0.83-2.14,1.25-3.67,1.25h-2.99v5.39h3.14c1.89,0,3.4,0.43,4.53,1.27c1.13,0.85,1.69,2.03,1.69,3.53 c0,1.54-0.56,2.74-1.69,3.63c-1.13,0.88-2.64,1.32-4.53,1.32c-1.86,0-3.41-0.49-4.63-1.47c-1.23-0.98-1.84-2.35-1.84-4.12h-6.27 c0,2.25,0.56,4.23,1.69,5.93c1.13,1.7,2.66,3.01,4.61,3.92C29.06,88.09,31.21,88.55,33.56,88.55 M13.77,93.98l4.12-3.09 c-4.31-5.81-6.47-12.2-6.47-19.16s2.16-13.34,6.47-19.16l-4.12-3.09c-2.61,3.1-4.6,6.53-5.95,10.29 c-1.36,3.76-2.03,7.74-2.03,11.96c0,4.21,0.68,8.2,2.03,11.96C9.17,87.45,11.15,90.88,13.77,93.98"></path> <path class="st0" d="M174.49,39.35c2.87,0,5.18-0.7,6.93-2.11c1.75-1.4,2.62-3.27,2.62-5.59c0-2.06-0.43-3.62-1.27-4.68 c-0.85-1.06-1.85-1.78-2.99-2.16c-1.14-0.38-2.63-0.69-4.46-0.95c-1.73-0.23-3-0.51-3.8-0.86c-0.8-0.34-1.2-1-1.2-1.98 c0-0.82,0.33-1.46,0.98-1.94c0.65-0.47,1.52-0.71,2.6-0.71c1.04,0,1.99,0.31,2.84,0.93c0.85,0.62,1.36,1.47,1.52,2.55h5.49 c-0.13-2.42-1.11-4.35-2.94-5.81c-1.83-1.45-4.18-2.18-7.06-2.18c-1.67,0-3.18,0.31-4.53,0.93c-1.36,0.62-2.42,1.49-3.19,2.62 c-0.77,1.13-1.15,2.39-1.15,3.8c0,1.86,0.4,3.3,1.2,4.31c0.8,1.01,1.76,1.71,2.87,2.11c1.11,0.39,2.55,0.75,4.31,1.08 c1.21,0.23,2.15,0.43,2.82,0.61c0.67,0.18,1.23,0.47,1.67,0.88c0.44,0.41,0.66,0.97,0.66,1.69c0,0.75-0.37,1.38-1.1,1.89 c-0.74,0.51-1.67,0.76-2.82,0.76c-1.34,0-2.43-0.34-3.28-1.03c-0.85-0.69-1.34-1.62-1.47-2.79h-5.49c0.13,2.65,1.12,4.75,2.96,6.3 C169.05,38.57,171.48,39.35,174.49,39.35 M145.53,39h5.39l15.43-34.35h-5.44L145.53,39z M135.19,4.65v13.92H119.9V4.65h-6.42v34.3 h6.42V24.2h15.29v14.75h6.47V4.65H135.19z M85.06,38.95h23.37v-5.63h-16.9v-9.16h13.13v-5.59H91.53v-8.33h16.36V4.65H85.06V38.95z M51.06,38.95h6.42c0.03-3.04,0.33-5.69,0.88-7.96c0.56-2.27,1.6-4.61,3.14-7.03l8.92-14.21v-5.1H45.18v5.59h18.08l-7.3,11.56 c-1.86,2.97-3.14,5.77-3.85,8.4C51.41,32.84,51.06,35.75,51.06,38.95 M37.92,38.95h6.57v-6.32h-6.57V38.95z M12.79,24.69v-5.78 c0-2.97,0.55-5.23,1.64-6.76c1.09-1.53,2.62-2.3,4.58-2.3h1.37c1.99,0,3.54,0.77,4.63,2.3c1.09,1.54,1.64,3.79,1.64,6.76v5.78 c0,2.97-0.56,5.22-1.67,6.74c-1.11,1.52-2.65,2.28-4.61,2.28h-1.37c-1.96,0-3.49-0.76-4.58-2.28 C13.33,29.91,12.79,27.67,12.79,24.69 M18.72,39.35h1.96c4.18,0,7.3-1.4,9.36-4.19s3.09-6.85,3.09-12.18v-2.35 c0-5.32-1.03-9.38-3.09-12.18s-5.18-4.19-9.36-4.19h-1.96c-8.27,0-12.4,5.46-12.4,16.37v2.35C6.32,33.89,10.45,39.35,18.72,39.35"></path> <g class="st1"> <g> <defs> <rect id="SVGID_3_" x="209.66" y="-8.56" width="116.06" height="93.46"></rect> </defs> <clipPath id="SVGID_4_"> <use xlink:href="#SVGID_3_" style="overflow:visible;"></use> </clipPath> <path class="st2" d="M254.02,13.71c0-0.73,0.61-1.32,1.37-1.32H280c0.75,0,1.37,0.59,1.37,1.32v5.3c0,0.73-0.61,1.32-1.37,1.32 h-24.62c-0.76,0-1.37-0.59-1.37-1.32V13.71z M255.38,22.98H280c2.27,0,4.1-1.78,4.1-3.97v-5.3c0-2.19-1.84-3.97-4.1-3.97h-24.62 c-2.27,0-4.1,1.78-4.1,3.97v5.3C251.28,21.2,253.12,22.98,255.38,22.98"></path> <path class="st2" d="M254.02,29.6c0-0.73,0.61-1.32,1.37-1.32H280c0.75,0,1.37,0.59,1.37,1.32v5.3c0,0.73-0.61,1.32-1.37,1.32 h-24.62c-0.76,0-1.37-0.59-1.37-1.32V29.6z M255.38,38.87H280c2.27,0,4.1-1.78,4.1-3.97v-5.3c0-2.19-1.84-3.97-4.1-3.97h-24.62 c-2.27,0-4.1,1.78-4.1,3.97v5.3C251.28,37.09,253.12,38.87,255.38,38.87"></path> <path class="st2" d="M254.02,45.49c0-0.73,0.61-1.32,1.37-1.32H280c0.75,0,1.37,0.59,1.37,1.32v5.3c0,0.73-0.61,1.32-1.37,1.32 h-24.62c-0.76,0-1.37-0.59-1.37-1.32V45.49z M255.38,54.76H280c2.27,0,4.1-1.78,4.1-3.97v-5.3c0-2.19-1.84-3.97-4.1-3.97h-24.62 c-2.27,0-4.1,1.78-4.1,3.97v5.3C251.28,52.98,253.12,54.76,255.38,54.76"></path> <path class="st2" d="M254.02,61.38c0-0.73,0.61-1.32,1.37-1.32H280c0.75,0,1.37,0.59,1.37,1.32v5.3c0,0.73-0.61,1.32-1.37,1.32 h-24.62c-0.76,0-1.37-0.59-1.37-1.32V61.38z M255.38,70.65H280c2.27,0,4.1-1.78,4.1-3.97v-5.3c0-2.19-1.84-3.97-4.1-3.97h-24.62 c-2.27,0-4.1,1.78-4.1,3.97v5.3C251.28,68.87,253.12,70.65,255.38,70.65"></path> <path class="st2" d="M305.99,73.3h-16.41v-5.3h13.68c1.51,0,2.74,1.18,2.74,2.65V73.3z M290.94,78.6v2.65h-46.5V78.6 c0-1.46,1.22-2.65,2.74-2.65h41.03C289.72,75.95,290.94,77.14,290.94,78.6 M229.4,70.65c0-1.46,1.22-2.65,2.74-2.65h13.68v5.3 H229.4V70.65z M234.87,15.03h10.94v2.65h-5.47c-2.27,0-4.1,1.78-4.1,3.97v5.3c0,2.19,1.84,3.97,4.1,3.97h5.47v2.65h-5.47 c-2.27,0-4.1,1.78-4.1,3.97v5.3c0,2.19,1.84,3.97,4.1,3.97h5.47v2.65h-5.47c-2.27,0-4.1,1.78-4.1,3.97v5.3 c0,2.19,1.84,3.97,4.1,3.97h5.47v2.65H233.5v-49C233.5,15.63,234.11,15.03,234.87,15.03 M245.81,54.76h-2.74 c-0.76,0-1.37,0.59-1.37,1.32c0,0.73,0.61,1.32,1.37,1.32h2.74v2.65h-5.47c-0.76,0-1.37-0.59-1.37-1.32v-5.3 c0-0.73,0.61-1.33,1.37-1.33h5.47V54.76z M245.81,38.87h-2.74c-0.76,0-1.37,0.59-1.37,1.33c0,0.73,0.61,1.32,1.37,1.32h2.74 v2.65h-5.47c-0.76,0-1.37-0.59-1.37-1.33v-5.3c0-0.73,0.61-1.32,1.37-1.32h5.47V38.87z M245.81,22.98h-2.74 c-0.76,0-1.37,0.59-1.37,1.32c0,0.73,0.61,1.32,1.37,1.32h2.74v2.65h-5.47c-0.76,0-1.37-0.59-1.37-1.32v-5.3 c0-0.73,0.61-1.32,1.37-1.32h5.47V22.98z M248.55,8.41c0-0.73,0.61-1.32,1.37-1.32h35.56c0.75,0,1.37,0.59,1.37,1.32V73.3 h-38.29V8.41z M289.58,41.52h2.73c0.76,0,1.37-0.59,1.37-1.32c0-0.73-0.61-1.33-1.37-1.33h-2.73v-2.65h5.47 c0.76,0,1.37,0.59,1.37,1.32v5.3c0,0.73-0.61,1.33-1.37,1.33h-5.47V41.52z M289.58,57.41h2.73c0.76,0,1.37-0.59,1.37-1.32 c0-0.73-0.61-1.32-1.37-1.32h-2.73v-2.65h5.47c0.76,0,1.37,0.59,1.37,1.33v5.3c0,0.73-0.61,1.32-1.37,1.32h-5.47V57.41z M292.31,22.98h-2.73v-2.65h5.47c0.76,0,1.37,0.59,1.37,1.32v5.3c0,0.73-0.61,1.32-1.37,1.32h-5.47v-2.65h2.73 c0.76,0,1.37-0.59,1.37-1.32C293.68,23.57,293.07,22.98,292.31,22.98 M300.52,15.03c0.76,0,1.37,0.59,1.37,1.33v49h-12.31v-2.65 h5.47c2.27,0,4.1-1.78,4.1-3.97v-5.3c0-2.19-1.84-3.97-4.1-3.97h-5.47v-2.65h5.47c2.27,0,4.1-1.78,4.1-3.97v-5.3 c0-2.19-1.84-3.97-4.1-3.97h-5.47v-2.65h5.47c2.27,0,4.1-1.78,4.1-3.97v-5.3c0-2.19-1.84-3.97-4.1-3.97h-5.47v-2.65H300.52z M304.62,65.54V16.36c0-2.19-1.84-3.97-4.1-3.97h-10.94V8.41c0-2.19-1.84-3.97-4.1-3.97h-35.56c-2.27,0-4.1,1.78-4.1,3.97v3.97 h-10.94c-2.27,0-4.1,1.78-4.1,3.97v49.19c-2.41,0.6-4.09,2.7-4.1,5.11v2.65c0,1.46,1.22,2.65,2.74,2.65h13.07 c-0.49,0.8-0.76,1.72-0.76,2.65v2.65c0,1.46,1.22,2.65,2.74,2.65h46.5c1.51,0,2.74-1.19,2.74-2.65V78.6 c-0.01-0.93-0.27-1.85-0.76-2.65h13.07c1.51,0,2.74-1.19,2.74-2.65v-2.65C308.71,68.25,307.03,66.15,304.62,65.54"></path> <path class="st2" d="M258.12,17.68h2.73c0.76,0,1.37-0.59,1.37-1.32c0-0.73-0.61-1.32-1.37-1.32h-2.73 c-0.76,0-1.37,0.59-1.37,1.32C256.75,17.09,257.36,17.68,258.12,17.68"></path> <path class="st2" d="M271.8,17.68h5.47c0.76,0,1.37-0.59,1.37-1.32c0-0.73-0.61-1.32-1.37-1.32h-5.47 c-0.76,0-1.37,0.59-1.37,1.32C270.43,17.09,271.04,17.68,271.8,17.68"></path> <path class="st2" d="M258.12,33.57h2.73c0.76,0,1.37-0.59,1.37-1.32c0-0.73-0.61-1.33-1.37-1.33h-2.73 c-0.76,0-1.37,0.59-1.37,1.33C256.75,32.98,257.36,33.57,258.12,33.57"></path> <path class="st2" d="M271.8,33.57h5.47c0.76,0,1.37-0.59,1.37-1.32c0-0.73-0.61-1.33-1.37-1.33h-5.47 c-0.76,0-1.37,0.59-1.37,1.33C270.43,32.98,271.04,33.57,271.8,33.57"></path> <path class="st2" d="M258.12,49.47h2.73c0.76,0,1.37-0.59,1.37-1.32c0-0.73-0.61-1.33-1.37-1.33h-2.73 c-0.76,0-1.37,0.59-1.37,1.33C256.75,48.87,257.36,49.47,258.12,49.47"></path> <path class="st2" d="M271.8,49.47h5.47c0.76,0,1.37-0.59,1.37-1.32c0-0.73-0.61-1.33-1.37-1.33h-5.47 c-0.76,0-1.37,0.59-1.37,1.33C270.43,48.87,271.04,49.47,271.8,49.47"></path> <path class="st2" d="M258.12,65.36h2.73c0.76,0,1.37-0.59,1.37-1.32c0-0.73-0.61-1.33-1.37-1.33h-2.73 c-0.76,0-1.37,0.59-1.37,1.33C256.75,64.76,257.36,65.36,258.12,65.36"></path> <path class="st2" d="M271.8,65.36h5.47c0.76,0,1.37-0.59,1.37-1.32c0-0.73-0.61-1.33-1.37-1.33h-5.47 c-0.76,0-1.37,0.59-1.37,1.33C270.43,64.76,271.04,65.36,271.8,65.36"></path> </g> </g> </g> </g> </svg> 